<?xml version="1.0" encoding="utf-8"?>
<!-- Generator: Adobe Illustrator 26.0.3, SVG Export Plug-In . SVG Version: 6.00 Build 0)  -->
<svg version="1.1" id="Layer_1" xmlns="http://www.w3.org/2000/svg" xmlns:xlink="http://www.w3.org/1999/xlink" x="0px" y="0px"
	 viewBox="0 0 11.6 11.6" style="enable-background:new 0 0 11.6 11.6;" xml:space="preserve">
<style type="text/css">
	.st0{fill:#FFFFFF;}
</style>
<path id="White_1_" class="st0" d="M11,0H0.6C0.3,0,0,0.3,0,0.6V11c0,0.4,0.3,0.6,0.6,0.6h5.6l0,0V7.1l0,0H4.7l0,0V5.4l0,0h1.5V4.1
	c0-1.5,0.9-2.3,2.3-2.3c0.6,0,1.2,0,1.4,0.1v1.6H9C8.2,3.4,8,3.7,8,4.2v1.1h1.6c0,0,0.1,0,0,0.1L9.5,7.1l0,0H8l0,0v4.4l0,0h3
	c0.4,0,0.6-0.3,0.6-0.6V0.6C11.6,0.3,11.3,0,11,0z"/>
</svg>
