<?xml version="1.0" encoding="utf-8"?>
<!-- Generator: Adobe Illustrator 26.0.3, SVG Export Plug-In . SVG Version: 6.00 Build 0)  -->
<svg version="1.1" id="Layer_1" xmlns="http://www.w3.org/2000/svg" xmlns:xlink="http://www.w3.org/1999/xlink" x="0px" y="0px"
	 viewBox="0 0 1870 1870" style="enable-background:new 0 0 1870 1870;" xml:space="preserve">
<style type="text/css">
	.st0{fill:#FFFFFF;}
</style>
<path id="White_1_" class="st0" d="M940.2,929.2h-10.4c-0.3,0-0.6,0.3-0.6,0.6v10.4c0,0.4,0.3,0.6,0.6,0.6h5.6l0,0v-4.5l0,0h-1.5
	l0,0v-1.7l0,0h1.5v-1.3c0-1.5,0.9-2.3,2.3-2.3c0.6,0,1.2,0,1.4,0.1v1.6h-0.9c-0.8-0.1-1,0.2-1,0.7v1.1h1.6c0,0,0.1,0,0,0.1l-0.1,1.7
	l0,0h-1.5l0,0v4.4l0,0h3c0.4,0,0.6-0.3,0.6-0.6v-10.3C940.8,929.5,940.5,929.2,940.2,929.2z"/>
</svg>
